<?xml version="1.0" encoding="UTF-8" standalone="no"?> <svg id="Capa_1" enable-background="new 0 0 512 512" height="512" viewBox="0 0 512 512" width="512" xmlns="http://www.w3.org/2000/svg"><g><path d="m436 60h-85.306c-5.653-11.992-17.777-20-31.637-20h-13.846l5.34-21.362c1.121-4.48.114-9.229-2.729-12.869s-7.203-5.769-11.822-5.769h-80c-4.619 0-8.98 2.128-11.823 5.769s-3.85 8.389-2.729 12.869l5.34 21.362h-13.846c-13.86 0-25.984 8.008-31.637 20h-85.305c-8.284 0-15 6.716-15 15v422c0 8.284 6.716 15 15 15h360c8.284 0 15-6.716 15-15v-422c0-8.284-6.716-15-15-15zm-243.058 10h33.058c4.619 0 8.98-2.128 11.823-5.769s3.85-8.389 2.729-12.869l-5.34-21.362h41.576l-5.34 21.362c-1.121 4.48-.114 9.229 2.729 12.869s7.204 5.769 11.823 5.769h33.058c2.454 0 4.528 1.757 4.932 4.178l4.303 25.822h-144.586l4.304-25.822c.403-2.421 2.477-4.178 4.931-4.178zm228.058 412h-330v-392h63.96l-3.756 22.534c-.725 4.349.501 8.797 3.351 12.161s7.036 5.305 11.445 5.305h180c4.409 0 8.596-1.94 11.445-5.305s4.075-7.813 3.351-12.161l-3.756-22.534h63.96z"/><path d="m360.938 364.559c-1.282-29.198-25.429-52.559-54.938-52.559h-100c-13.785 0-25-11.215-25-25v-13.787l4.394 4.394c2.928 2.928 6.767 4.393 10.606 4.393s7.678-1.465 10.606-4.394c5.858-5.857 5.858-15.355 0-21.213l-13.501-13.501c10.862-8.222 17.895-21.249 17.895-35.892 0-24.813-20.187-45-45-45s-45 20.187-45 45c0 14.643 7.033 27.67 17.895 35.893l-13.501 13.501c-5.858 5.857-5.858 15.355 0 21.213 5.857 5.857 15.355 5.857 21.213 0l4.394-4.394v13.787c0 30.327 24.673 55 55 55h100c12.982 0 23.681 9.947 24.884 22.62-17.4 6.224-29.885 22.868-29.885 42.38 0 24.813 20.187 45 45 45s45-20.187 45-45c0-19.578-12.571-36.266-30.062-42.441zm-194.938-172.559c8.271 0 15 6.729 15 15s-6.729 15-15 15-15-6.729-15-15 6.729-15 15-15zm180 230c-8.271 0-15-6.729-15-15s6.729-15 15-15 15 6.729 15 15-6.729 15-15 15z"/><path d="m326.606 166.394c-5.857-5.857-15.355-5.857-21.213 0s-5.858 15.355 0 21.213l19.394 19.393-19.394 19.394c-5.858 5.857-5.858 15.355 0 21.213 2.929 2.928 6.768 4.393 10.607 4.393s7.678-1.465 10.606-4.394l19.394-19.393 19.394 19.394c2.928 2.928 6.767 4.393 10.606 4.393s7.678-1.465 10.606-4.394c5.858-5.857 5.858-15.355 0-21.213l-19.393-19.393 19.394-19.394c5.858-5.857 5.858-15.355 0-21.213-5.857-5.857-15.355-5.857-21.213 0l-19.394 19.394z"/><path d="m206.606 366.394c-5.857-5.857-15.355-5.857-21.213 0l-19.393 19.393-19.394-19.394c-5.857-5.857-15.355-5.857-21.213 0s-5.858 15.355 0 21.213l19.394 19.394-19.394 19.394c-5.858 5.857-5.858 15.355 0 21.213 2.929 2.928 6.768 4.393 10.607 4.393s7.678-1.465 10.606-4.394l19.394-19.393 19.394 19.394c2.928 2.928 6.767 4.393 10.606 4.393s7.678-1.465 10.606-4.394c5.858-5.857 5.858-15.355 0-21.213l-19.393-19.393 19.394-19.394c5.858-5.857 5.858-15.355-.001-21.212z"/></g></svg>