<svg xmlns="http://www.w3.org/2000/svg" width="20" height="12" viewBox="0 0 20 12">
<path id="handshake-emoji" d="M16.225,66l-1.487-1.487A1.758,1.758,0,0,0,13.5,64H6.412a1.763,1.763,0,0,0-1.237.509L3.687,66H0v7.991H2A1,1,0,0,0,3,73h.284l2.644,2.387a2.75,2.75,0,0,0,3.3.119,1.918,1.918,0,0,0,2.809-.253,1.753,1.753,0,0,0,2-.525l.819-1.009A1.714,1.714,0,0,0,15.194,73H17a1,1,0,0,0,1,.991h2V66ZM1.5,72.987a.5.5,0,1,1,.5-.5A.5.5,0,0,1,1.5,72.987Zm12.187-.216-.816,1.006a.252.252,0,0,1-.353.037l-.747-.606-.937,1.141a.418.418,0,0,1-.562.075l-1.15-.984-.487.6a1.245,1.245,0,0,1-1.728.206L3.866,71.5H3v-4H4.309l1.928-1.925.178-.072H8.187L6.978,66.606a2.237,2.237,0,0,0-.137,3.166,2.264,2.264,0,0,0,3.172.138l.256-.234,3.381,2.744a.255.255,0,0,1,.038.353ZM17,71.5H14.837a1.751,1.751,0,0,0-.241-.241L11.387,68.65l.391-.356a.5.5,0,0,0,.031-.706l-.341-.366a.5.5,0,0,0-.706-.031L9.037,68.772a.8.8,0,0,1-1.081,0,.741.741,0,0,1,.037-1.059l2.05-1.878a1.243,1.243,0,0,1,.844-.328L13.5,65.5a.234.234,0,0,1,.172.072L15.6,67.5H17Zm1.5,1.491a.5.5,0,1,1,.5-.5A.5.5,0,0,1,18.5,72.987Z" transform="translate(0 -64)" style="fill: rgb(255, 255, 255);"></path>
</svg>