<svg id="Layer_1" data-name="Layer 1" xmlns="http://www.w3.org/2000/svg" viewBox="0 0 64 64"><path d="M46.435,16.641l1.536-1.282A25.973,25.973,0,0,0,32.159,6.331l-.318,1.975A23.979,23.979,0,0,1,46.435,16.641Z" id="id_101" style="fill: rgb(255, 255, 255);"></path><path d="M24.159,8.306l-.318-1.975A25.912,25.912,0,0,0,2.331,27.842l1.974.316A23.915,23.915,0,0,1,24.159,8.306Z" id="id_102" style="fill: rgb(255, 255, 255);"></path><path d="M23.841,57.669l.318-1.975A24.072,24.072,0,0,1,4.48,36.8l-1.96.4A26.084,26.084,0,0,0,23.841,57.669Z" id="id_103" style="fill: rgb(255, 255, 255);"></path><path d="M31.841,55.694l.318,1.975A25.853,25.853,0,0,0,48.8,47.592l-1.6-1.2A23.866,23.866,0,0,1,31.841,55.694Z" id="id_104" style="fill: rgb(255, 255, 255);"></path><rect x="2" y="31" width="2" height="2" id="id_105" style="fill: rgb(255, 255, 255);"></rect><rect x="27" y="6" width="2" height="2" id="id_106" style="fill: rgb(255, 255, 255);"></rect><rect x="27" y="56" width="2" height="2" id="id_107" style="fill: rgb(255, 255, 255);"></rect><path d="M45,27H30a2,2,0,0,0-2,2v6a2,2,0,0,0,2,2H45v6L62,32,45,21Z" id="id_108" style="fill: rgb(255, 255, 255);"></path><path d="M27.989,20a12.189,12.189,0,0,1,9.869,5H43V21.346a1.873,1.873,0,0,1-1.41-.676,18.392,18.392,0,0,0-2.25-2.25,1.925,1.925,0,0,1-.53-2.23,1.859,1.859,0,0,0,.14-.73,1.9,1.9,0,0,0-1.18-1.76l-3.74-1.55a1.893,1.893,0,0,0-2.49,1.03,1.942,1.942,0,0,1-1.78,1.21,1.087,1.087,0,0,1-.18-.01,18.642,18.642,0,0,0-3.17,0,1.927,1.927,0,0,1-1.95-1.2A1.888,1.888,0,0,0,22.71,12a1.919,1.919,0,0,0-.74.15L18.23,13.7a1.906,1.906,0,0,0-1.04,2.49,1.9,1.9,0,0,1,.16.77,1.874,1.874,0,0,1-.68,1.45A17.536,17.536,0,0,0,14.4,20.7a1.893,1.893,0,0,1-2.17.51l-.04-.02A1.906,1.906,0,0,0,9.7,22.23L8.15,25.97a1.893,1.893,0,0,0,1.03,2.49,1.942,1.942,0,0,1,1.21,1.78,1.087,1.087,0,0,1-.01.18,18.116,18.116,0,0,0,.01,3.21,1.887,1.887,0,0,1-1.17,1.89l-.04.02a1.893,1.893,0,0,0-1.03,2.49L9.7,41.77a1.906,1.906,0,0,0,2.49,1.04,1.9,1.9,0,0,1,.77-.16,1.874,1.874,0,0,1,1.45.68A17.536,17.536,0,0,0,16.7,45.6a1.893,1.893,0,0,1,.51,2.17l-.02.04a1.906,1.906,0,0,0,1.04,2.49l3.74,1.55a1.893,1.893,0,0,0,2.49-1.03,1.942,1.942,0,0,1,1.78-1.21,1.087,1.087,0,0,1,.18.01,18.116,18.116,0,0,0,3.21-.01,1.887,1.887,0,0,1,1.89,1.17l.02.04a1.893,1.893,0,0,0,2.49,1.03l3.74-1.55a1.906,1.906,0,0,0,1.04-2.49,1.9,1.9,0,0,1-.16-.77,1.874,1.874,0,0,1,.68-1.45,18.392,18.392,0,0,0,2.25-2.25A1.891,1.891,0,0,1,43,42.678V39H37.858a12.1,12.1,0,1,1-9.869-19Z" id="id_109" style="fill: rgb(255, 255, 255);"></path></svg>