<svg xmlns="http://www.w3.org/2000/svg" viewBox="0 0 32 32"><title>Strategy</title><g id="Strategy"><circle cx="12" cy="22" r="1" id="id_101" style="fill: rgb(255, 255, 255);"></circle><path d="M22,3H10A4.859,4.859,0,0,0,5,7.692V24.308A4.859,4.859,0,0,0,10,29H22a4.859,4.859,0,0,0,5-4.692V7.692A4.859,4.859,0,0,0,22,3ZM9.543,8.957a1,1,0,1,1,1.414-1.414L12,8.586l1.043-1.043a1,1,0,1,1,1.414,1.414L13.414,10l1.043,1.043a1,1,0,1,1-1.414,1.414L12,11.414l-1.043,1.043a1,1,0,0,1-1.414-1.414L10.586,10ZM22.457,23.043a1,1,0,1,1-1.414,1.414L20,23.414l-1.043,1.043a1,1,0,0,1-1.414-1.414L18.586,22l-1.043-1.043a1,1,0,0,1,1.414-1.414L20,20.586l1.043-1.043a1,1,0,0,1,1.414,1.414L21.414,22Zm.25-12.336a1,1,0,0,1-1.414,0L21,10.414V12a5.006,5.006,0,0,1-5,5,3,3,0,0,0-2.884,2.22,3.014,3.014,0,1,1-2.031-.062A5,5,0,0,1,16,15a3,3,0,0,0,3-3V10.414l-.293.293a1,1,0,0,1-1.414-1.414l2-2a1,1,0,0,1,1.414,0l2,2A1,1,0,0,1,22.707,10.707Z" id="id_102" style="fill: rgb(255, 255, 255);"></path></g></svg>